<svg width="334" height="334" viewBox="0 0 334 334" fill="none" xmlns="http://www.w3.org/2000/svg">
<g clip-path="url(#clip0_252_38)">
<rect width="334" height="334" fill="white"/>
<path d="M172.367 198.693C172.367 196.801 172.898 194.083 175.837 193.469C180.078 192.581 184.931 196.869 186.249 198.134C186.153 198.635 187.804 208.77 187.804 209.648C187.804 212.62 187.009 212.737 186.701 212.786C183.797 213.207 176.059 205.079 172.506 200.349C172.456 200.09 172.367 199.52 172.367 198.693Z" fill="#FFC93E" stroke="#603813" stroke-width="3" stroke-miterlimit="10"/>
<path d="M160.607 212.893C158.502 210.612 158.201 204.43 158.201 201.798C158.201 200.683 158.259 199.94 158.262 199.918L158.265 199.86C158.265 199.86 158.259 199.623 158.259 199.535C158.259 194.581 162.823 192.861 163.598 192.603C166.242 192.634 170.81 193.884 171.901 195.77C172.012 195.96 172.115 196.199 172.115 196.504C172.115 196.773 172.034 197.097 171.806 197.492C171.7 197.671 169.824 202.102 168.236 205.499L167.1 208.641C166.251 211.386 164.913 214.132 163.46 214.132C162.311 214.137 161.379 213.73 160.607 212.893V212.893Z" fill="#FFC93E" stroke="#603813" stroke-width="4" stroke-miterlimit="10"/>
<path d="M236.015 162.333C246.089 163.785 250.055 165.296 249.987 169.951C249.959 171.773 249.04 173.379 247.341 174.596C243.175 177.571 233.172 178.994 224.567 176.207C218.692 174.305 204.693 162.991 204.093 159.183C204.04 158.866 204.106 158.366 204.232 158.272C204.599 157.66 205.5 157.153 206.609 157.053C209.685 156.772 214.532 157.644 219.385 158.921C223.153 159.916 227.434 161.042 231.897 161.727L236.015 162.333V162.333Z" fill="#FFC93E" stroke="#603813" stroke-width="3" stroke-miterlimit="10"/>
<path d="M158.682 107.878C158.682 107.878 154.065 93.5997 149.759 87.7143C147.205 83.5772 143.524 78.4213 138.659 78.7446C132.622 78.9018 129.332 86.1351 123.371 88.4498C119.508 89.9371 109.326 91.8811 110.892 88.4498C115.068 79.8286 131.734 74.9871 135.897 64.1624C137.772 59.2616 129.555 53.4088 124.109 52.3857C120.034 51.6428 118.113 58.6388 114.393 60.7118C112.684 61.6653 107.952 62.6469 108.822 60.7118C111.969 54.2422 115.565 45.8434 122.68 43.3715C128.05 41.512 133.906 47.0385 137.969 50.9621C150.533 63.0992 161.152 77.5613 172.468 90.4798L179.164 98.1001C179.164 98.1001 183.952 103.966 187.614 107.836C187.679 107.903 191.144 107.366 193.535 105.379C195.486 103.754 195.229 101.935 195.85 98.1105C196.42 94.5947 197.04 88.2363 198.925 88.2036C201.77 88.1606 203.64 99.8706 204.367 104.208L204.771 106.529C205.726 111.687 210.707 127.199 210.923 127.858C210.991 128.018 211.102 128.227 211.102 128.227L211.142 128.31L211.199 128.38C218.896 137.913 224.615 149.47 224.615 160.296C224.615 183.227 204.494 199.368 177.562 199.368C172.567 199.368 167.68 198.666 163.04 197.295L162.791 197.222C162.791 197.222 155.505 196.611 146.185 208.847C144.315 211.304 144.483 213.594 141.848 212.89C140.969 212.655 140.325 212.01 139.796 210.839C138.537 208.045 139.467 201.427 141.008 197.201L141.25 196.537L140.693 196.096C140.556 195.988 125.442 184.986 123.914 169.22C122.584 155.477 129.533 147.652 132.417 143.353L134.075 140.598C136.167 135.515 132.23 128.446 128.756 122.21C126.683 118.486 123.335 113.052 124.091 111.773C124.929 110.359 127.928 111.865 130.956 113.307C133.412 114.48 135.773 116.136 137.414 115.043C139.119 113.909 138.002 111.06 136.45 107.116C134.993 103.412 132.233 97.5618 133.293 95.1463C133.585 94.4835 134.097 94.0164 134.859 93.7213C137.675 92.6329 141.701 97.3706 144.961 101.078C148.936 105.597 153.446 110.725 158.682 107.878V107.878Z" fill="#FFC93E" stroke="#603813" stroke-width="3" stroke-miterlimit="10" stroke-linecap="round" stroke-linejoin="round"/>
<path d="M163.33 161.975C163.33 157.836 166.687 154.482 170.832 154.478C174.974 154.478 178.33 157.836 178.33 161.975C178.33 166.111 174.975 169.463 170.832 169.463C166.689 169.463 163.33 166.111 163.33 161.975Z" fill="white"/>
<path d="M171.84 156.795C173.296 156.795 174.616 157.385 175.57 158.342C176.528 159.295 177.117 160.614 177.117 162.068C177.117 163.523 176.528 164.841 175.57 165.796C174.614 166.751 173.296 167.341 171.84 167.341C170.383 167.341 169.064 166.751 168.109 165.796C167.152 164.841 166.562 163.524 166.562 162.068C166.562 160.615 167.153 159.295 168.109 158.342C169.065 157.385 170.383 156.795 171.84 156.795Z" fill="#603813"/>
<path d="M199.461 161.975C199.461 157.836 202.819 154.482 206.964 154.478C211.106 154.478 214.463 157.836 214.463 161.975C214.463 166.111 211.103 169.463 206.964 169.463C202.819 169.463 199.461 166.111 199.461 161.975Z" fill="white"/>
<path d="M202.99 162.068C202.99 159.157 205.35 156.795 208.268 156.795C211.182 156.795 213.547 159.159 213.547 162.068C213.547 164.982 211.182 167.34 208.268 167.34C205.35 167.34 202.99 164.981 202.99 162.068Z" fill="#603813"/>
<path d="M111.541 190.898C110.004 189.917 109.117 188.298 108.975 186.21C108.627 181.102 112.674 171.854 119.565 166.005C124.271 162.01 141.263 156.06 144.822 157.549C145.115 157.672 145.509 157.989 145.522 158.148C145.855 158.781 145.81 159.807 145.314 160.803C143.938 163.567 140.65 167.232 137.01 170.679C134.181 173.369 130.976 176.407 128.052 179.845L125.369 183.019C118.842 190.822 115.468 193.405 111.541 190.898V190.898Z" fill="#FFC93E" stroke="#603813" stroke-width="3" stroke-miterlimit="10"/>
<path d="M183.538 183.023C188.318 178.93 195.145 178.936 195.145 178.936" stroke="#603813" stroke-width="2" stroke-miterlimit="10" stroke-linecap="round" stroke-linejoin="round"/>
<path d="M256.283 152.994C256.283 152.994 238.021 184.572 236.149 187.269C234.115 190.198 223.311 184.859 224.37 180.364C225.132 177.133 244.504 146.089 244.504 146.089L256.283 152.994Z" fill="#CACACA" stroke="#616161" stroke-width="3" stroke-miterlimit="10"/>
<path d="M233.949 135.282C233.949 121.36 245.248 110.074 259.185 110.074C273.122 110.074 284.421 121.36 284.421 135.282C284.421 149.204 273.122 160.49 259.185 160.49C245.248 160.49 233.949 149.204 233.949 135.282Z" fill="#A2E5FB" stroke="#335A61" stroke-width="3" stroke-miterlimit="10"/>
<path d="M247.048 167.39C251.042 168.641 252.698 170.365 252.659 173.807C252.638 175.628 251.932 177.235 250.626 178.452C249.472 179.525 247.733 180.397 245.672 180.941C243.483 181.519 233.642 177.645 235.094 171.37C237.342 161.656 246.484 167.214 247.048 167.39V167.39Z" fill="#FFC93E" stroke="#603813" stroke-width="3" stroke-miterlimit="10"/>
<path d="M263.935 118.674C263.935 118.674 268.716 120.246 272.383 124.45C274.888 127.322 276.405 131.723 276.405 131.723" stroke="#C1ECFA" stroke-width="3" stroke-miterlimit="10" stroke-linecap="round"/>
<path d="M100.75 249.614V251.147H93.2207V249.614H100.75ZM93.6016 236.928V251.147H91.7168V236.928H93.6016ZM99.7539 243.042V244.575H93.2207V243.042H99.7539ZM100.652 236.928V238.471H93.2207V236.928H100.652ZM105.77 249.516L108.66 240.581H110.506L106.707 251.147H105.496L105.77 249.516ZM103.357 240.581L106.336 249.565L106.541 251.147H105.33L101.502 240.581H103.357ZM116.492 251.343C115.757 251.343 115.089 251.219 114.49 250.971C113.898 250.718 113.387 250.363 112.957 249.907C112.534 249.451 112.208 248.911 111.98 248.286C111.753 247.661 111.639 246.977 111.639 246.235V245.825C111.639 244.966 111.766 244.201 112.02 243.53C112.273 242.853 112.618 242.28 113.055 241.811C113.491 241.343 113.986 240.988 114.539 240.747C115.092 240.506 115.665 240.385 116.258 240.385C117.013 240.385 117.664 240.516 118.211 240.776C118.764 241.037 119.217 241.401 119.568 241.87C119.92 242.332 120.18 242.879 120.35 243.51C120.519 244.135 120.604 244.819 120.604 245.561V246.372H112.713V244.897H118.797V244.76C118.771 244.292 118.673 243.836 118.504 243.393C118.341 242.951 118.081 242.586 117.723 242.3C117.365 242.013 116.876 241.87 116.258 241.87C115.848 241.87 115.47 241.958 115.125 242.134C114.78 242.303 114.484 242.557 114.236 242.895C113.989 243.234 113.797 243.647 113.66 244.135C113.523 244.624 113.455 245.187 113.455 245.825V246.235C113.455 246.736 113.523 247.208 113.66 247.651C113.803 248.087 114.008 248.471 114.275 248.803C114.549 249.135 114.878 249.396 115.262 249.585C115.652 249.774 116.095 249.868 116.59 249.868C117.228 249.868 117.768 249.738 118.211 249.477C118.654 249.217 119.041 248.869 119.373 248.432L120.467 249.302C120.239 249.647 119.949 249.975 119.598 250.288C119.246 250.6 118.813 250.854 118.299 251.05C117.791 251.245 117.189 251.343 116.492 251.343ZM124.52 242.837V251.147H122.713V240.581H124.422L124.52 242.837ZM124.09 245.464L123.338 245.434C123.344 244.712 123.452 244.044 123.66 243.432C123.868 242.814 124.161 242.277 124.539 241.821C124.917 241.365 125.366 241.014 125.887 240.766C126.414 240.512 126.997 240.385 127.635 240.385C128.156 240.385 128.624 240.457 129.041 240.6C129.458 240.737 129.812 240.958 130.105 241.264C130.405 241.57 130.633 241.968 130.789 242.456C130.945 242.938 131.023 243.527 131.023 244.223V251.147H129.207V244.204C129.207 243.65 129.126 243.208 128.963 242.876C128.8 242.537 128.562 242.293 128.25 242.143C127.938 241.987 127.553 241.909 127.098 241.909C126.648 241.909 126.238 242.003 125.867 242.192C125.503 242.381 125.187 242.641 124.92 242.973C124.66 243.305 124.454 243.686 124.305 244.116C124.161 244.539 124.09 244.988 124.09 245.464ZM144.266 238.188L139.559 251.147H137.635L143.055 236.928H144.295L144.266 238.188ZM148.211 251.147L143.494 238.188L143.465 236.928H144.705L150.145 251.147H148.211ZM147.967 245.884V247.427H139.979V245.884H147.967ZM153.738 236.147V251.147H151.922V236.147H153.738ZM156.16 245.981V245.757C156.16 244.995 156.271 244.288 156.492 243.637C156.714 242.98 157.033 242.41 157.449 241.928C157.866 241.44 158.37 241.063 158.963 240.796C159.555 240.522 160.219 240.385 160.955 240.385C161.697 240.385 162.365 240.522 162.957 240.796C163.556 241.063 164.064 241.44 164.48 241.928C164.904 242.41 165.226 242.98 165.447 243.637C165.669 244.288 165.779 244.995 165.779 245.757V245.981C165.779 246.743 165.669 247.449 165.447 248.1C165.226 248.751 164.904 249.321 164.48 249.809C164.064 250.291 163.559 250.669 162.967 250.942C162.381 251.209 161.717 251.343 160.975 251.343C160.232 251.343 159.565 251.209 158.973 250.942C158.38 250.669 157.872 250.291 157.449 249.809C157.033 249.321 156.714 248.751 156.492 248.1C156.271 247.449 156.16 246.743 156.16 245.981ZM157.967 245.757V245.981C157.967 246.509 158.029 247.007 158.152 247.475C158.276 247.938 158.462 248.348 158.709 248.706C158.963 249.064 159.279 249.347 159.656 249.555C160.034 249.757 160.473 249.858 160.975 249.858C161.469 249.858 161.902 249.757 162.273 249.555C162.651 249.347 162.964 249.064 163.211 248.706C163.458 248.348 163.644 247.938 163.768 247.475C163.898 247.007 163.963 246.509 163.963 245.981V245.757C163.963 245.236 163.898 244.744 163.768 244.282C163.644 243.813 163.455 243.4 163.201 243.042C162.954 242.677 162.641 242.391 162.264 242.182C161.893 241.974 161.456 241.87 160.955 241.87C160.46 241.87 160.024 241.974 159.646 242.182C159.275 242.391 158.963 242.677 158.709 243.042C158.462 243.4 158.276 243.813 158.152 244.282C158.029 244.744 157.967 245.236 157.967 245.757ZM169.852 242.837V251.147H168.045V240.581H169.754L169.852 242.837ZM169.422 245.464L168.67 245.434C168.676 244.712 168.784 244.044 168.992 243.432C169.201 242.814 169.493 242.277 169.871 241.821C170.249 241.365 170.698 241.014 171.219 240.766C171.746 240.512 172.329 240.385 172.967 240.385C173.488 240.385 173.956 240.457 174.373 240.6C174.79 240.737 175.145 240.958 175.438 241.264C175.737 241.57 175.965 241.968 176.121 242.456C176.277 242.938 176.355 243.527 176.355 244.223V251.147H174.539V244.204C174.539 243.65 174.458 243.208 174.295 242.876C174.132 242.537 173.895 242.293 173.582 242.143C173.27 241.987 172.885 241.909 172.43 241.909C171.98 241.909 171.57 242.003 171.199 242.192C170.835 242.381 170.519 242.641 170.252 242.973C169.992 243.305 169.786 243.686 169.637 244.116C169.493 244.539 169.422 244.988 169.422 245.464ZM186.971 249.663V251.147H179.285V249.663H186.971ZM186.688 241.86L179.695 251.147H178.592V249.819L185.535 240.581H186.688V241.86ZM185.887 240.581V242.075H178.67V240.581H185.887ZM188.387 245.981V245.757C188.387 244.995 188.497 244.288 188.719 243.637C188.94 242.98 189.259 242.41 189.676 241.928C190.092 241.44 190.597 241.063 191.189 240.796C191.782 240.522 192.446 240.385 193.182 240.385C193.924 240.385 194.591 240.522 195.184 240.796C195.783 241.063 196.29 241.44 196.707 241.928C197.13 242.41 197.452 242.98 197.674 243.637C197.895 244.288 198.006 244.995 198.006 245.757V245.981C198.006 246.743 197.895 247.449 197.674 248.1C197.452 248.751 197.13 249.321 196.707 249.809C196.29 250.291 195.786 250.669 195.193 250.942C194.607 251.209 193.943 251.343 193.201 251.343C192.459 251.343 191.792 251.209 191.199 250.942C190.607 250.669 190.099 250.291 189.676 249.809C189.259 249.321 188.94 248.751 188.719 248.1C188.497 247.449 188.387 246.743 188.387 245.981ZM190.193 245.757V245.981C190.193 246.509 190.255 247.007 190.379 247.475C190.503 247.938 190.688 248.348 190.936 248.706C191.189 249.064 191.505 249.347 191.883 249.555C192.26 249.757 192.7 249.858 193.201 249.858C193.696 249.858 194.129 249.757 194.5 249.555C194.878 249.347 195.19 249.064 195.438 248.706C195.685 248.348 195.87 247.938 195.994 247.475C196.124 247.007 196.189 246.509 196.189 245.981V245.757C196.189 245.236 196.124 244.744 195.994 244.282C195.87 243.813 195.682 243.4 195.428 243.042C195.18 242.677 194.868 242.391 194.49 242.182C194.119 241.974 193.683 241.87 193.182 241.87C192.687 241.87 192.251 241.974 191.873 242.182C191.502 242.391 191.189 242.677 190.936 243.042C190.688 243.4 190.503 243.813 190.379 244.282C190.255 244.744 190.193 245.236 190.193 245.757ZM209.656 240.581V241.968H203.943V240.581H209.656ZM205.877 238.012H207.684V248.53C207.684 248.888 207.739 249.158 207.85 249.341C207.96 249.523 208.104 249.643 208.279 249.702C208.455 249.76 208.644 249.79 208.846 249.79C208.995 249.79 209.152 249.777 209.314 249.751C209.484 249.718 209.611 249.692 209.695 249.673L209.705 251.147C209.562 251.193 209.373 251.235 209.139 251.274C208.911 251.32 208.634 251.343 208.309 251.343C207.866 251.343 207.459 251.255 207.088 251.079C206.717 250.903 206.421 250.61 206.199 250.2C205.984 249.783 205.877 249.223 205.877 248.52V238.012ZM213.582 242.241V251.147H211.775V240.581H213.533L213.582 242.241ZM216.883 240.522L216.873 242.202C216.723 242.169 216.58 242.15 216.443 242.143C216.313 242.13 216.163 242.124 215.994 242.124C215.577 242.124 215.21 242.189 214.891 242.319C214.572 242.449 214.301 242.632 214.08 242.866C213.859 243.1 213.683 243.38 213.553 243.706C213.429 244.025 213.348 244.376 213.309 244.76L212.801 245.053C212.801 244.415 212.863 243.816 212.986 243.257C213.117 242.697 213.315 242.202 213.582 241.772C213.849 241.336 214.188 240.997 214.598 240.757C215.014 240.509 215.509 240.385 216.082 240.385C216.212 240.385 216.362 240.402 216.531 240.434C216.701 240.46 216.818 240.49 216.883 240.522ZM220.516 240.581V251.147H218.699V240.581H220.516ZM218.562 237.778C218.562 237.485 218.65 237.238 218.826 237.036C219.008 236.834 219.275 236.733 219.627 236.733C219.972 236.733 220.236 236.834 220.418 237.036C220.607 237.238 220.701 237.485 220.701 237.778C220.701 238.058 220.607 238.299 220.418 238.501C220.236 238.696 219.972 238.794 219.627 238.794C219.275 238.794 219.008 238.696 218.826 238.501C218.65 238.299 218.562 238.058 218.562 237.778ZM227.801 251.343C227.065 251.343 226.398 251.219 225.799 250.971C225.206 250.718 224.695 250.363 224.266 249.907C223.842 249.451 223.517 248.911 223.289 248.286C223.061 247.661 222.947 246.977 222.947 246.235V245.825C222.947 244.966 223.074 244.201 223.328 243.53C223.582 242.853 223.927 242.28 224.363 241.811C224.799 241.343 225.294 240.988 225.848 240.747C226.401 240.506 226.974 240.385 227.566 240.385C228.322 240.385 228.973 240.516 229.52 240.776C230.073 241.037 230.525 241.401 230.877 241.87C231.229 242.332 231.489 242.879 231.658 243.51C231.827 244.135 231.912 244.819 231.912 245.561V246.372H224.021V244.897H230.105V244.76C230.079 244.292 229.982 243.836 229.812 243.393C229.65 242.951 229.389 242.586 229.031 242.3C228.673 242.013 228.185 241.87 227.566 241.87C227.156 241.87 226.779 241.958 226.434 242.134C226.089 242.303 225.792 242.557 225.545 242.895C225.298 243.234 225.105 243.647 224.969 244.135C224.832 244.624 224.764 245.187 224.764 245.825V246.235C224.764 246.736 224.832 247.208 224.969 247.651C225.112 248.087 225.317 248.471 225.584 248.803C225.857 249.135 226.186 249.396 226.57 249.585C226.961 249.774 227.404 249.868 227.898 249.868C228.536 249.868 229.077 249.738 229.52 249.477C229.962 249.217 230.35 248.869 230.682 248.432L231.775 249.302C231.548 249.647 231.258 249.975 230.906 250.288C230.555 250.6 230.122 250.854 229.607 251.05C229.1 251.245 228.497 251.343 227.801 251.343ZM240.682 249.096V236.147H242.498V251.147H240.838L240.682 249.096ZM233.572 245.981V245.776C233.572 244.969 233.67 244.236 233.865 243.579C234.067 242.915 234.35 242.345 234.715 241.87C235.086 241.395 235.525 241.03 236.033 240.776C236.548 240.516 237.12 240.385 237.752 240.385C238.416 240.385 238.995 240.503 239.49 240.737C239.992 240.965 240.415 241.3 240.76 241.743C241.111 242.179 241.388 242.706 241.59 243.325C241.792 243.943 241.932 244.643 242.01 245.425V246.323C241.938 247.098 241.798 247.794 241.59 248.413C241.388 249.031 241.111 249.559 240.76 249.995C240.415 250.431 239.992 250.766 239.49 251.001C238.989 251.229 238.403 251.343 237.732 251.343C237.114 251.343 236.548 251.209 236.033 250.942C235.525 250.675 235.086 250.301 234.715 249.819C234.35 249.337 234.067 248.771 233.865 248.12C233.67 247.462 233.572 246.749 233.572 245.981ZM235.389 245.776V245.981C235.389 246.509 235.441 247.003 235.545 247.466C235.656 247.928 235.825 248.335 236.053 248.686C236.281 249.038 236.57 249.315 236.922 249.516C237.273 249.712 237.693 249.809 238.182 249.809C238.781 249.809 239.272 249.682 239.656 249.428C240.047 249.175 240.359 248.839 240.594 248.423C240.828 248.006 241.01 247.553 241.141 247.065V244.712C241.062 244.354 240.949 244.009 240.799 243.677C240.656 243.338 240.467 243.038 240.232 242.778C240.005 242.511 239.721 242.3 239.383 242.143C239.051 241.987 238.657 241.909 238.201 241.909C237.706 241.909 237.28 242.013 236.922 242.221C236.57 242.423 236.281 242.703 236.053 243.061C235.825 243.413 235.656 243.823 235.545 244.292C235.441 244.754 235.389 245.249 235.389 245.776Z" fill="#603813"/>
<path d="M53.1297 279.019L54.7626 273.792H55.4793L55.3383 274.831L53.676 280.147H52.9769L53.1297 279.019ZM52.0312 273.792L53.4234 279.078L53.5232 280.147H52.789L50.9445 273.792H52.0312ZM57.0418 279.037L58.3693 273.792H59.4501L57.6057 280.147H56.8773L57.0418 279.037ZM55.6379 273.792L57.2356 278.931L57.4177 280.147H56.7246L55.0152 274.819L54.8743 273.792H55.6379ZM63.2036 280.265C62.7611 280.265 62.3597 280.19 61.9994 280.041C61.6431 279.889 61.3357 279.675 61.0772 279.401C60.8227 279.127 60.6269 278.802 60.4898 278.426C60.3528 278.05 60.2842 277.639 60.2842 277.193V276.946C60.2842 276.429 60.3606 275.969 60.5133 275.565C60.666 275.158 60.8736 274.814 61.136 274.532C61.3983 274.25 61.696 274.036 62.0288 273.891C62.3617 273.746 62.7063 273.674 63.0626 273.674C63.5169 273.674 63.9085 273.752 64.2374 273.909C64.5703 274.066 64.8425 274.285 65.0539 274.567C65.2654 274.845 65.422 275.174 65.5239 275.554C65.6257 275.93 65.6766 276.341 65.6766 276.787V277.275H60.9304V276.388H64.5899V276.306C64.5742 276.024 64.5155 275.75 64.4137 275.483C64.3158 275.217 64.1591 274.998 63.9437 274.825C63.7284 274.653 63.4347 274.567 63.0626 274.567C62.8159 274.567 62.5888 274.62 62.3813 274.725C62.1737 274.827 61.9955 274.98 61.8467 275.184C61.6979 275.387 61.5824 275.636 61.5002 275.93C61.4179 276.223 61.3768 276.562 61.3768 276.946V277.193C61.3768 277.494 61.4179 277.778 61.5002 278.044C61.5863 278.307 61.7097 278.538 61.8702 278.737C62.0347 278.937 62.2324 279.094 62.4635 279.207C62.6985 279.321 62.9647 279.378 63.2624 279.378C63.6461 279.378 63.9712 279.299 64.2374 279.143C64.5037 278.986 64.7367 278.777 64.9365 278.514L65.5943 279.037C65.4573 279.245 65.283 279.442 65.0716 279.63C64.8601 279.818 64.5997 279.971 64.2903 280.088C63.9849 280.206 63.6226 280.265 63.2036 280.265ZM73.63 278.461C73.63 278.305 73.5948 278.16 73.5243 278.027C73.4577 277.89 73.3187 277.766 73.1072 277.657C72.8997 277.543 72.5864 277.445 72.1674 277.363C71.8149 277.289 71.4958 277.2 71.2099 277.099C70.928 276.997 70.6871 276.873 70.4874 276.729C70.2916 276.584 70.1408 276.413 70.0351 276.217C69.9294 276.022 69.8765 275.793 69.8765 275.53C69.8765 275.28 69.9313 275.043 70.041 274.819C70.1545 274.596 70.3131 274.399 70.5168 274.226C70.7243 274.054 70.973 273.919 71.2628 273.821C71.5526 273.723 71.8756 273.674 72.232 273.674C72.7411 273.674 73.1757 273.764 73.536 273.944C73.8963 274.124 74.1724 274.365 74.3643 274.667C74.5561 274.964 74.6521 275.295 74.6521 275.659H73.5654C73.5654 275.483 73.5125 275.313 73.4068 275.148C73.305 274.98 73.1542 274.841 72.9545 274.731C72.7587 274.622 72.5179 274.567 72.232 274.567C71.9305 274.567 71.6857 274.614 71.4977 274.708C71.3137 274.798 71.1786 274.913 71.0924 275.054C71.0102 275.195 70.9691 275.344 70.9691 275.501C70.9691 275.618 70.9887 275.724 71.0278 275.818C71.0709 275.908 71.1453 275.992 71.251 276.071C71.3568 276.145 71.5056 276.216 71.6975 276.282C71.8893 276.349 72.1341 276.415 72.4317 276.482C72.9525 276.599 73.3813 276.74 73.7181 276.905C74.0549 277.069 74.3055 277.271 74.47 277.51C74.6345 277.749 74.7167 278.038 74.7167 278.379C74.7167 278.657 74.658 278.912 74.5405 279.143C74.4269 279.374 74.2605 279.574 74.0412 279.742C73.8258 279.906 73.5674 280.036 73.2658 280.13C72.9682 280.22 72.6334 280.265 72.2614 280.265C71.7014 280.265 71.2275 280.165 70.8398 279.965C70.4522 279.765 70.1585 279.507 69.9587 279.19C69.759 278.873 69.6592 278.538 69.6592 278.185H70.7517C70.7674 278.483 70.8536 278.72 71.0102 278.896C71.1668 279.068 71.3587 279.192 71.5858 279.266C71.813 279.337 72.0381 279.372 72.2614 279.372C72.559 279.372 72.8076 279.333 73.0074 279.254C73.211 279.176 73.3657 279.068 73.4714 278.931C73.5771 278.794 73.63 278.638 73.63 278.461ZM78.805 273.792V274.626H75.3687V273.792H78.805ZM76.5318 272.247H77.6185V278.573C77.6185 278.788 77.6518 278.951 77.7183 279.061C77.7849 279.17 77.8711 279.243 77.9768 279.278C78.0825 279.313 78.1961 279.331 78.3175 279.331C78.4076 279.331 78.5015 279.323 78.5994 279.307C78.7013 279.288 78.7776 279.272 78.8285 279.26L78.8344 280.147C78.7482 280.175 78.6347 280.2 78.4937 280.224C78.3566 280.251 78.1902 280.265 77.9944 280.265C77.7281 280.265 77.4834 280.212 77.2602 280.106C77.0369 280 76.8588 279.824 76.7256 279.577C76.5964 279.327 76.5318 278.99 76.5318 278.567V272.247ZM81.2604 273.792V280.147H80.1678V273.792H81.2604ZM80.0856 272.106C80.0856 271.929 80.1384 271.781 80.2442 271.659C80.3538 271.538 80.5144 271.477 80.7258 271.477C80.9334 271.477 81.092 271.538 81.2016 271.659C81.3152 271.781 81.372 271.929 81.372 272.106C81.372 272.274 81.3152 272.419 81.2016 272.54C81.092 272.658 80.9334 272.717 80.7258 272.717C80.5144 272.717 80.3538 272.658 80.2442 272.54C80.1384 272.419 80.0856 272.274 80.0856 272.106ZM84.1856 271.125V280.147H83.0931V271.125H84.1856ZM87.1109 271.125V280.147H86.0183V271.125H87.1109ZM94.3829 279.372C94.6414 279.372 94.8803 279.319 95.0996 279.213C95.3189 279.108 95.499 278.963 95.64 278.779C95.781 278.591 95.8612 278.377 95.8808 278.138H96.9146C96.8951 278.514 96.7678 278.865 96.5328 279.19C96.3018 279.511 95.9983 279.771 95.6224 279.971C95.2464 280.167 94.8333 280.265 94.3829 280.265C93.9052 280.265 93.4881 280.181 93.1318 280.012C92.7793 279.844 92.4856 279.613 92.2507 279.319C92.0196 279.025 91.8454 278.689 91.7279 278.309C91.6143 277.925 91.5575 277.52 91.5575 277.093V276.846C91.5575 276.419 91.6143 276.016 91.7279 275.636C91.8454 275.252 92.0196 274.913 92.2507 274.62C92.4856 274.326 92.7793 274.095 93.1318 273.927C93.4881 273.758 93.9052 273.674 94.3829 273.674C94.8803 273.674 95.3149 273.776 95.687 273.979C96.059 274.179 96.3507 274.453 96.5622 274.802C96.7776 275.146 96.8951 275.538 96.9146 275.977H95.8808C95.8612 275.714 95.7868 275.477 95.6576 275.266C95.5323 275.054 95.36 274.886 95.1407 274.761C94.9253 274.632 94.6727 274.567 94.3829 274.567C94.0501 274.567 93.7701 274.633 93.5429 274.767C93.3197 274.896 93.1416 275.072 93.0084 275.295C92.8792 275.515 92.7852 275.759 92.7265 276.03C92.6716 276.296 92.6442 276.568 92.6442 276.846V277.093C92.6442 277.371 92.6716 277.645 92.7265 277.915C92.7813 278.185 92.8733 278.43 93.0025 278.649C93.1357 278.869 93.3139 279.045 93.5371 279.178C93.7642 279.307 94.0462 279.372 94.3829 279.372ZM101.884 279.061V275.789C101.884 275.538 101.833 275.321 101.731 275.137C101.633 274.949 101.485 274.804 101.285 274.702C101.085 274.6 100.838 274.549 100.545 274.549C100.271 274.549 100.03 274.596 99.8223 274.69C99.6186 274.784 99.4581 274.908 99.3406 275.06C99.227 275.213 99.1703 275.378 99.1703 275.554H98.0836C98.0836 275.327 98.1423 275.101 98.2598 274.878C98.3773 274.655 98.5457 274.453 98.765 274.273C98.9882 274.089 99.2545 273.944 99.5638 273.839C99.8771 273.729 100.226 273.674 100.609 273.674C101.071 273.674 101.479 273.752 101.831 273.909C102.188 274.066 102.466 274.303 102.665 274.62C102.869 274.933 102.971 275.327 102.971 275.8V278.761C102.971 278.972 102.988 279.198 103.024 279.436C103.063 279.675 103.12 279.881 103.194 280.053V280.147H102.06C102.005 280.022 101.962 279.855 101.931 279.648C101.9 279.436 101.884 279.241 101.884 279.061ZM102.072 276.294L102.084 277.057H100.985C100.676 277.057 100.4 277.083 100.157 277.134C99.9143 277.181 99.7107 277.253 99.5462 277.351C99.3817 277.449 99.2564 277.572 99.1703 277.721C99.0841 277.866 99.041 278.036 99.041 278.232C99.041 278.432 99.0861 278.614 99.1761 278.779C99.2662 278.943 99.4013 279.074 99.5814 279.172C99.7655 279.266 99.9907 279.313 100.257 279.313C100.59 279.313 100.884 279.243 101.138 279.102C101.393 278.961 101.594 278.788 101.743 278.585C101.896 278.381 101.978 278.183 101.99 277.991L102.454 278.514C102.426 278.679 102.352 278.861 102.231 279.061C102.109 279.26 101.947 279.452 101.743 279.636C101.543 279.816 101.304 279.967 101.026 280.088C100.752 280.206 100.443 280.265 100.098 280.265C99.6676 280.265 99.2897 280.181 98.9647 280.012C98.6436 279.844 98.3929 279.619 98.2128 279.337C98.0366 279.051 97.9485 278.732 97.9485 278.379C97.9485 278.038 98.015 277.739 98.1482 277.48C98.2813 277.218 98.4732 277.001 98.7238 276.828C98.9745 276.652 99.276 276.519 99.6284 276.429C99.9809 276.339 100.374 276.294 100.809 276.294H102.072ZM105.767 275.148V280.147H104.68V273.792H105.708L105.767 275.148ZM105.508 276.729L105.056 276.711C105.06 276.276 105.125 275.875 105.25 275.507C105.375 275.135 105.551 274.812 105.779 274.538C106.006 274.263 106.276 274.052 106.589 273.903C106.906 273.75 107.257 273.674 107.641 273.674C107.954 273.674 108.236 273.717 108.486 273.803C108.737 273.886 108.951 274.019 109.127 274.203C109.307 274.387 109.444 274.626 109.538 274.919C109.632 275.209 109.679 275.564 109.679 275.983V280.147H108.586V275.971C108.586 275.638 108.537 275.372 108.439 275.172C108.342 274.968 108.199 274.821 108.011 274.731C107.823 274.637 107.592 274.59 107.318 274.59C107.047 274.59 106.801 274.647 106.577 274.761C106.358 274.874 106.168 275.031 106.008 275.231C105.851 275.43 105.728 275.659 105.638 275.918C105.551 276.172 105.508 276.443 105.508 276.729ZM111.382 271.125V271.771L111.259 273.933H110.501L110.507 271.871V271.125H111.382ZM115.482 273.792V274.626H112.046V273.792H115.482ZM113.209 272.247H114.296V278.573C114.296 278.788 114.329 278.951 114.396 279.061C114.462 279.17 114.548 279.243 114.654 279.278C114.76 279.313 114.873 279.331 114.995 279.331C115.085 279.331 115.179 279.323 115.277 279.307C115.379 279.288 115.455 279.272 115.506 279.26L115.512 280.147C115.426 280.175 115.312 280.2 115.171 280.224C115.034 280.251 114.868 280.265 114.672 280.265C114.406 280.265 114.161 280.212 113.938 280.106C113.714 280 113.536 279.824 113.403 279.577C113.274 279.327 113.209 278.99 113.209 278.567V272.247ZM121.192 280.147H120.105V273.239C120.105 272.758 120.199 272.35 120.387 272.018C120.575 271.685 120.843 271.432 121.192 271.26C121.541 271.088 121.954 271.001 122.431 271.001C122.713 271.001 122.989 271.037 123.26 271.107C123.53 271.174 123.808 271.258 124.094 271.36L123.912 272.276C123.732 272.206 123.522 272.139 123.283 272.076C123.048 272.01 122.79 271.976 122.508 271.976C122.042 271.976 121.705 272.082 121.497 272.294C121.294 272.501 121.192 272.816 121.192 273.239V280.147ZM122.49 273.792V274.626H119.101V273.792H122.49ZM124.628 273.792V280.147H123.542V273.792H124.628ZM127.501 275.148V280.147H126.414V273.792H127.442L127.501 275.148ZM127.242 276.729L126.79 276.711C126.794 276.276 126.858 275.875 126.984 275.507C127.109 275.135 127.285 274.812 127.512 274.538C127.74 274.263 128.01 274.052 128.323 273.903C128.64 273.75 128.991 273.674 129.374 273.674C129.688 273.674 129.97 273.717 130.22 273.803C130.471 273.886 130.684 274.019 130.861 274.203C131.041 274.387 131.178 274.626 131.272 274.919C131.366 275.209 131.413 275.564 131.413 275.983V280.147H130.32V275.971C130.32 275.638 130.271 275.372 130.173 275.172C130.075 274.968 129.933 274.821 129.745 274.731C129.557 274.637 129.326 274.59 129.051 274.59C128.781 274.59 128.535 274.647 128.311 274.761C128.092 274.874 127.902 275.031 127.742 275.231C127.585 275.43 127.462 275.659 127.371 275.918C127.285 276.172 127.242 276.443 127.242 276.729ZM137.069 278.914V271.125H138.162V280.147H137.163L137.069 278.914ZM132.793 277.04V276.917C132.793 276.431 132.852 275.99 132.969 275.595C133.091 275.195 133.261 274.853 133.48 274.567C133.704 274.281 133.968 274.062 134.273 273.909C134.583 273.752 134.927 273.674 135.307 273.674C135.707 273.674 136.055 273.745 136.353 273.886C136.654 274.023 136.909 274.224 137.116 274.491C137.328 274.753 137.494 275.07 137.616 275.442C137.737 275.814 137.821 276.235 137.868 276.705V277.245C137.825 277.711 137.741 278.13 137.616 278.502C137.494 278.875 137.328 279.192 137.116 279.454C136.909 279.716 136.654 279.918 136.353 280.059C136.051 280.196 135.699 280.265 135.296 280.265C134.923 280.265 134.583 280.184 134.273 280.024C133.968 279.863 133.704 279.638 133.48 279.348C133.261 279.059 133.091 278.718 132.969 278.326C132.852 277.931 132.793 277.502 132.793 277.04ZM133.886 276.917V277.04C133.886 277.357 133.917 277.655 133.98 277.933C134.046 278.211 134.148 278.455 134.285 278.667C134.422 278.878 134.596 279.045 134.808 279.166C135.019 279.284 135.272 279.342 135.566 279.342C135.926 279.342 136.222 279.266 136.453 279.113C136.688 278.961 136.876 278.759 137.017 278.508C137.158 278.258 137.267 277.986 137.346 277.692V276.276C137.299 276.061 137.23 275.853 137.14 275.654C137.054 275.45 136.94 275.27 136.799 275.113C136.662 274.953 136.492 274.825 136.288 274.731C136.088 274.637 135.852 274.59 135.577 274.59C135.28 274.59 135.023 274.653 134.808 274.778C134.596 274.9 134.422 275.068 134.285 275.284C134.148 275.495 134.046 275.742 133.98 276.024C133.917 276.302 133.886 276.599 133.886 276.917ZM145.499 273.792V274.626H142.062V273.792H145.499ZM143.225 272.247H144.312V278.573C144.312 278.788 144.345 278.951 144.412 279.061C144.479 279.17 144.565 279.243 144.67 279.278C144.776 279.313 144.89 279.331 145.011 279.331C145.101 279.331 145.195 279.323 145.293 279.307C145.395 279.288 145.471 279.272 145.522 279.26L145.528 280.147C145.442 280.175 145.328 280.2 145.187 280.224C145.05 280.251 144.884 280.265 144.688 280.265C144.422 280.265 144.177 280.212 143.954 280.106C143.731 280 143.552 279.824 143.419 279.577C143.29 279.327 143.225 278.99 143.225 278.567V272.247ZM147.86 271.125V280.147H146.773V271.125H147.86ZM147.602 276.729L147.149 276.711C147.153 276.276 147.218 275.875 147.343 275.507C147.468 275.135 147.645 274.812 147.872 274.538C148.099 274.263 148.369 274.052 148.682 273.903C149 273.75 149.35 273.674 149.734 273.674C150.047 273.674 150.329 273.717 150.58 273.803C150.83 273.886 151.044 274.019 151.22 274.203C151.4 274.387 151.537 274.626 151.631 274.919C151.725 275.209 151.772 275.564 151.772 275.983V280.147H150.68V275.971C150.68 275.638 150.631 275.372 150.533 275.172C150.435 274.968 150.292 274.821 150.104 274.731C149.916 274.637 149.685 274.59 149.411 274.59C149.141 274.59 148.894 274.647 148.671 274.761C148.451 274.874 148.261 275.031 148.101 275.231C147.944 275.43 147.821 275.659 147.731 275.918C147.645 276.172 147.602 276.443 147.602 276.729ZM156.037 280.265C155.594 280.265 155.193 280.19 154.833 280.041C154.476 279.889 154.169 279.675 153.91 279.401C153.656 279.127 153.46 278.802 153.323 278.426C153.186 278.05 153.117 277.639 153.117 277.193V276.946C153.117 276.429 153.194 275.969 153.346 275.565C153.499 275.158 153.707 274.814 153.969 274.532C154.231 274.25 154.529 274.036 154.862 273.891C155.195 273.746 155.539 273.674 155.896 273.674C156.35 273.674 156.742 273.752 157.071 273.909C157.403 274.066 157.676 274.285 157.887 274.567C158.098 274.845 158.255 275.174 158.357 275.554C158.459 275.93 158.51 276.341 158.51 276.787V277.275H153.763V276.388H157.423V276.306C157.407 276.024 157.349 275.75 157.247 275.483C157.149 275.217 156.992 274.998 156.777 274.825C156.561 274.653 156.268 274.567 155.896 274.567C155.649 274.567 155.422 274.62 155.214 274.725C155.007 274.827 154.829 274.98 154.68 275.184C154.531 275.387 154.415 275.636 154.333 275.93C154.251 276.223 154.21 276.562 154.21 276.946V277.193C154.21 277.494 154.251 277.778 154.333 278.044C154.419 278.307 154.543 278.538 154.703 278.737C154.868 278.937 155.066 279.094 155.297 279.207C155.532 279.321 155.798 279.378 156.095 279.378C156.479 279.378 156.804 279.299 157.071 279.143C157.337 278.986 157.57 278.777 157.77 278.514L158.427 279.037C158.29 279.245 158.116 279.442 157.905 279.63C157.693 279.818 157.433 279.971 157.123 280.088C156.818 280.206 156.456 280.265 156.037 280.265ZM163.849 275.013V282.591H162.757V273.792H163.755L163.849 275.013ZM168.131 276.917V277.04C168.131 277.502 168.076 277.931 167.967 278.326C167.857 278.718 167.697 279.059 167.485 279.348C167.278 279.638 167.021 279.863 166.716 280.024C166.41 280.184 166.06 280.265 165.664 280.265C165.261 280.265 164.905 280.198 164.595 280.065C164.286 279.932 164.023 279.738 163.808 279.483C163.593 279.229 163.42 278.923 163.291 278.567C163.166 278.211 163.08 277.809 163.033 277.363V276.705C163.08 276.235 163.168 275.814 163.297 275.442C163.426 275.07 163.597 274.753 163.808 274.491C164.023 274.224 164.284 274.023 164.589 273.886C164.895 273.745 165.247 273.674 165.647 273.674C166.046 273.674 166.4 273.752 166.71 273.909C167.019 274.062 167.28 274.281 167.491 274.567C167.702 274.853 167.861 275.195 167.967 275.595C168.076 275.99 168.131 276.431 168.131 276.917ZM167.039 277.04V276.917C167.039 276.599 167.005 276.302 166.939 276.024C166.872 275.742 166.769 275.495 166.628 275.284C166.49 275.068 166.314 274.9 166.099 274.778C165.884 274.653 165.627 274.59 165.329 274.59C165.055 274.59 164.816 274.637 164.613 274.731C164.413 274.825 164.243 274.953 164.102 275.113C163.961 275.27 163.845 275.45 163.755 275.654C163.669 275.853 163.604 276.061 163.561 276.276V277.798C163.64 278.072 163.749 278.33 163.89 278.573C164.031 278.812 164.219 279.006 164.454 279.155C164.689 279.299 164.985 279.372 165.341 279.372C165.635 279.372 165.887 279.311 166.099 279.19C166.314 279.064 166.49 278.894 166.628 278.679C166.769 278.463 166.872 278.217 166.939 277.939C167.005 277.657 167.039 277.357 167.039 277.04ZM173.265 279.061V275.789C173.265 275.538 173.214 275.321 173.112 275.137C173.015 274.949 172.866 274.804 172.666 274.702C172.466 274.6 172.22 274.549 171.926 274.549C171.652 274.549 171.411 274.596 171.203 274.69C171 274.784 170.839 274.908 170.722 275.06C170.608 275.213 170.551 275.378 170.551 275.554H169.465C169.465 275.327 169.523 275.101 169.641 274.878C169.758 274.655 169.927 274.453 170.146 274.273C170.369 274.089 170.636 273.944 170.945 273.839C171.258 273.729 171.607 273.674 171.991 273.674C172.453 273.674 172.86 273.752 173.212 273.909C173.569 274.066 173.847 274.303 174.046 274.62C174.25 274.933 174.352 275.327 174.352 275.8V278.761C174.352 278.972 174.37 279.198 174.405 279.436C174.444 279.675 174.501 279.881 174.575 280.053V280.147H173.441C173.387 280.022 173.344 279.855 173.312 279.648C173.281 279.436 173.265 279.241 173.265 279.061ZM173.453 276.294L173.465 277.057H172.366C172.057 277.057 171.781 277.083 171.538 277.134C171.295 277.181 171.092 277.253 170.927 277.351C170.763 277.449 170.638 277.572 170.551 277.721C170.465 277.866 170.422 278.036 170.422 278.232C170.422 278.432 170.467 278.614 170.557 278.779C170.647 278.943 170.782 279.074 170.963 279.172C171.147 279.266 171.372 279.313 171.638 279.313C171.971 279.313 172.265 279.243 172.519 279.102C172.774 278.961 172.975 278.788 173.124 278.585C173.277 278.381 173.359 278.183 173.371 277.991L173.835 278.514C173.808 278.679 173.733 278.861 173.612 279.061C173.49 279.26 173.328 279.452 173.124 279.636C172.925 279.816 172.686 279.967 172.408 280.088C172.133 280.206 171.824 280.265 171.479 280.265C171.049 280.265 170.671 280.181 170.346 280.012C170.025 279.844 169.774 279.619 169.594 279.337C169.418 279.051 169.33 278.732 169.33 278.379C169.33 278.038 169.396 277.739 169.529 277.48C169.662 277.218 169.854 277.001 170.105 276.828C170.356 276.652 170.657 276.519 171.01 276.429C171.362 276.339 171.756 276.294 172.19 276.294H173.453ZM180.179 273.792H181.166V280.012C181.166 280.572 181.052 281.05 180.825 281.445C180.598 281.841 180.281 282.14 179.873 282.344C179.47 282.552 179.004 282.655 178.475 282.655C178.256 282.655 177.998 282.62 177.7 282.55C177.406 282.483 177.117 282.368 176.831 282.203C176.549 282.043 176.312 281.825 176.12 281.551L176.69 280.905C176.956 281.226 177.234 281.449 177.524 281.575C177.818 281.7 178.107 281.763 178.393 281.763C178.738 281.763 179.035 281.698 179.286 281.569C179.537 281.44 179.731 281.248 179.868 280.993C180.009 280.742 180.079 280.433 180.079 280.065V275.19L180.179 273.792ZM175.803 277.04V276.917C175.803 276.431 175.86 275.99 175.973 275.595C176.091 275.195 176.257 274.853 176.472 274.567C176.692 274.281 176.956 274.062 177.265 273.909C177.575 273.752 177.923 273.674 178.311 273.674C178.71 273.674 179.059 273.745 179.357 273.886C179.658 274.023 179.913 274.224 180.12 274.491C180.332 274.753 180.498 275.07 180.619 275.442C180.741 275.814 180.825 276.235 180.872 276.705V277.245C180.829 277.711 180.745 278.13 180.619 278.502C180.498 278.875 180.332 279.192 180.12 279.454C179.913 279.716 179.658 279.918 179.357 280.059C179.055 280.196 178.703 280.265 178.299 280.265C177.919 280.265 177.575 280.184 177.265 280.024C176.96 279.863 176.698 279.638 176.478 279.348C176.259 279.059 176.091 278.718 175.973 278.326C175.86 277.931 175.803 277.502 175.803 277.04ZM176.889 276.917V277.04C176.889 277.357 176.921 277.655 176.983 277.933C177.05 278.211 177.15 278.455 177.283 278.667C177.42 278.878 177.594 279.045 177.806 279.166C178.017 279.284 178.27 279.342 178.564 279.342C178.924 279.342 179.221 279.266 179.456 279.113C179.691 278.961 179.877 278.759 180.014 278.508C180.155 278.258 180.265 277.986 180.343 277.692V276.276C180.3 276.061 180.234 275.853 180.144 275.654C180.058 275.45 179.944 275.27 179.803 275.113C179.666 274.953 179.496 274.825 179.292 274.731C179.088 274.637 178.849 274.59 178.575 274.59C178.278 274.59 178.021 274.653 177.806 274.778C177.594 274.9 177.42 275.068 177.283 275.284C177.15 275.495 177.05 275.742 176.983 276.024C176.921 276.302 176.889 276.599 176.889 276.917ZM185.454 280.265C185.011 280.265 184.61 280.19 184.25 280.041C183.893 279.889 183.586 279.675 183.327 279.401C183.073 279.127 182.877 278.802 182.74 278.426C182.603 278.05 182.534 277.639 182.534 277.193V276.946C182.534 276.429 182.611 275.969 182.763 275.565C182.916 275.158 183.124 274.814 183.386 274.532C183.649 274.25 183.946 274.036 184.279 273.891C184.612 273.746 184.956 273.674 185.313 273.674C185.767 273.674 186.159 273.752 186.488 273.909C186.82 274.066 187.093 274.285 187.304 274.567C187.516 274.845 187.672 275.174 187.774 275.554C187.876 275.93 187.927 276.341 187.927 276.787V277.275H183.181V276.388H186.84V276.306C186.824 276.024 186.766 275.75 186.664 275.483C186.566 275.217 186.409 274.998 186.194 274.825C185.979 274.653 185.685 274.567 185.313 274.567C185.066 274.567 184.839 274.62 184.631 274.725C184.424 274.827 184.246 274.98 184.097 275.184C183.948 275.387 183.833 275.636 183.75 275.93C183.668 276.223 183.627 276.562 183.627 276.946V277.193C183.627 277.494 183.668 277.778 183.75 278.044C183.836 278.307 183.96 278.538 184.12 278.737C184.285 278.937 184.483 279.094 184.714 279.207C184.949 279.321 185.215 279.378 185.513 279.378C185.896 279.378 186.221 279.299 186.488 279.143C186.754 278.986 186.987 278.777 187.187 278.514L187.845 279.037C187.707 279.245 187.533 279.442 187.322 279.63C187.11 279.818 186.85 279.971 186.54 280.088C186.235 280.206 185.873 280.265 185.454 280.265ZM193.965 279.489L195.733 273.792H196.896L194.347 281.128C194.288 281.285 194.21 281.453 194.112 281.633C194.018 281.817 193.897 281.992 193.748 282.156C193.599 282.321 193.419 282.454 193.208 282.556C193 282.661 192.751 282.714 192.462 282.714C192.375 282.714 192.266 282.702 192.133 282.679C191.999 282.655 191.905 282.636 191.851 282.62L191.845 281.739C191.876 281.743 191.925 281.747 191.992 281.751C192.062 281.759 192.111 281.763 192.138 281.763C192.385 281.763 192.595 281.729 192.767 281.663C192.939 281.6 193.084 281.492 193.202 281.34C193.323 281.191 193.427 280.985 193.513 280.723L193.965 279.489ZM192.667 273.792L194.318 278.726L194.6 279.871L193.818 280.271L191.481 273.792H192.667ZM197.496 277.04V276.905C197.496 276.447 197.562 276.022 197.695 275.63C197.828 275.235 198.02 274.892 198.271 274.602C198.522 274.308 198.825 274.081 199.181 273.921C199.538 273.756 199.937 273.674 200.38 273.674C200.826 273.674 201.228 273.756 201.584 273.921C201.944 274.081 202.25 274.308 202.5 274.602C202.755 274.892 202.949 275.235 203.082 275.63C203.215 276.022 203.281 276.447 203.281 276.905V277.04C203.281 277.498 203.215 277.923 203.082 278.315C202.949 278.706 202.755 279.049 202.5 279.342C202.25 279.632 201.946 279.859 201.59 280.024C201.237 280.184 200.838 280.265 200.391 280.265C199.945 280.265 199.544 280.184 199.187 280.024C198.831 279.859 198.525 279.632 198.271 279.342C198.02 279.049 197.828 278.706 197.695 278.315C197.562 277.923 197.496 277.498 197.496 277.04ZM198.582 276.905V277.04C198.582 277.357 198.619 277.657 198.694 277.939C198.768 278.217 198.88 278.463 199.029 278.679C199.181 278.894 199.371 279.064 199.598 279.19C199.826 279.311 200.09 279.372 200.391 279.372C200.689 279.372 200.949 279.311 201.173 279.19C201.4 279.064 201.588 278.894 201.737 278.679C201.885 278.463 201.997 278.217 202.071 277.939C202.15 277.657 202.189 277.357 202.189 277.04V276.905C202.189 276.591 202.15 276.296 202.071 276.018C201.997 275.736 201.883 275.487 201.731 275.272C201.582 275.052 201.394 274.88 201.167 274.755C200.944 274.63 200.681 274.567 200.38 274.567C200.082 274.567 199.82 274.63 199.593 274.755C199.369 274.88 199.181 275.052 199.029 275.272C198.88 275.487 198.768 275.736 198.694 276.018C198.619 276.296 198.582 276.591 198.582 276.905ZM208.533 278.679V273.792H209.625V280.147H208.586L208.533 278.679ZM208.738 277.339L209.191 277.328C209.191 277.751 209.146 278.142 209.056 278.502C208.969 278.859 208.828 279.168 208.633 279.431C208.437 279.693 208.18 279.899 207.863 280.047C207.546 280.192 207.16 280.265 206.706 280.265C206.397 280.265 206.113 280.22 205.854 280.13C205.6 280.04 205.38 279.901 205.196 279.713C205.012 279.525 204.869 279.28 204.768 278.978C204.67 278.677 204.621 278.315 204.621 277.892V273.792H205.707V277.903C205.707 278.189 205.739 278.426 205.801 278.614C205.868 278.798 205.956 278.945 206.066 279.055C206.179 279.16 206.305 279.235 206.442 279.278C206.583 279.321 206.728 279.342 206.876 279.342C207.338 279.342 207.705 279.254 207.975 279.078C208.245 278.898 208.439 278.657 208.556 278.356C208.678 278.05 208.738 277.711 208.738 277.339ZM212.38 271.125V271.877C212.38 272.112 212.339 272.36 212.257 272.623C212.179 272.881 212.063 273.132 211.91 273.374C211.758 273.613 211.574 273.823 211.358 274.003L210.736 273.574C210.92 273.316 211.059 273.051 211.153 272.781C211.251 272.507 211.3 272.211 211.3 271.894V271.125H212.38ZM214.777 274.79V280.147H213.69V273.792H214.748L214.777 274.79ZM216.762 273.756L216.756 274.767C216.666 274.747 216.58 274.735 216.498 274.731C216.42 274.724 216.33 274.72 216.228 274.72C215.977 274.72 215.756 274.759 215.564 274.837C215.372 274.915 215.21 275.025 215.077 275.166C214.943 275.307 214.838 275.475 214.759 275.671C214.685 275.863 214.636 276.075 214.612 276.306L214.307 276.482C214.307 276.098 214.344 275.738 214.419 275.401C214.497 275.064 214.616 274.767 214.777 274.508C214.937 274.246 215.141 274.042 215.388 273.897C215.638 273.748 215.936 273.674 216.281 273.674C216.359 273.674 216.449 273.684 216.551 273.703C216.653 273.719 216.723 273.737 216.762 273.756ZM220.287 280.265C219.844 280.265 219.443 280.19 219.083 280.041C218.726 279.889 218.419 279.675 218.16 279.401C217.906 279.127 217.71 278.802 217.573 278.426C217.436 278.05 217.367 277.639 217.367 277.193V276.946C217.367 276.429 217.444 275.969 217.596 275.565C217.749 275.158 217.957 274.814 218.219 274.532C218.481 274.25 218.779 274.036 219.112 273.891C219.445 273.746 219.789 273.674 220.146 273.674C220.6 273.674 220.992 273.752 221.321 273.909C221.653 274.066 221.926 274.285 222.137 274.567C222.349 274.845 222.505 275.174 222.607 275.554C222.709 275.93 222.76 276.341 222.76 276.787V277.275H218.014V276.388H221.673V276.306C221.657 276.024 221.599 275.75 221.497 275.483C221.399 275.217 221.242 274.998 221.027 274.825C220.811 274.653 220.518 274.567 220.146 274.567C219.899 274.567 219.672 274.62 219.464 274.725C219.257 274.827 219.079 274.98 218.93 275.184C218.781 275.387 218.666 275.636 218.583 275.93C218.501 276.223 218.46 276.562 218.46 276.946V277.193C218.46 277.494 218.501 277.778 218.583 278.044C218.669 278.307 218.793 278.538 218.953 278.737C219.118 278.937 219.316 279.094 219.547 279.207C219.782 279.321 220.048 279.378 220.345 279.378C220.729 279.378 221.054 279.299 221.321 279.143C221.587 278.986 221.82 278.777 222.02 278.514L222.677 279.037C222.54 279.245 222.366 279.442 222.155 279.63C221.943 279.818 221.683 279.971 221.373 280.088C221.068 280.206 220.706 280.265 220.287 280.265ZM228.193 271.125V280.147H227.101V271.125H228.193ZM229.65 277.04V276.905C229.65 276.447 229.717 276.022 229.85 275.63C229.983 275.235 230.175 274.892 230.425 274.602C230.676 274.308 230.979 274.081 231.336 273.921C231.692 273.756 232.092 273.674 232.534 273.674C232.981 273.674 233.382 273.756 233.738 273.921C234.099 274.081 234.404 274.308 234.655 274.602C234.909 274.892 235.103 275.235 235.236 275.63C235.369 276.022 235.436 276.447 235.436 276.905V277.04C235.436 277.498 235.369 277.923 235.236 278.315C235.103 278.706 234.909 279.049 234.655 279.342C234.404 279.632 234.1 279.859 233.744 280.024C233.392 280.184 232.992 280.265 232.546 280.265C232.099 280.265 231.698 280.184 231.342 280.024C230.985 279.859 230.68 279.632 230.425 279.342C230.175 279.049 229.983 278.706 229.85 278.315C229.717 277.923 229.65 277.498 229.65 277.04ZM230.737 276.905V277.04C230.737 277.357 230.774 277.657 230.848 277.939C230.923 278.217 231.034 278.463 231.183 278.679C231.336 278.894 231.526 279.064 231.753 279.19C231.98 279.311 232.244 279.372 232.546 279.372C232.843 279.372 233.104 279.311 233.327 279.19C233.554 279.064 233.742 278.894 233.891 278.679C234.04 278.463 234.151 278.217 234.226 277.939C234.304 277.657 234.343 277.357 234.343 277.04V276.905C234.343 276.591 234.304 276.296 234.226 276.018C234.151 275.736 234.038 275.487 233.885 275.272C233.736 275.052 233.548 274.88 233.321 274.755C233.098 274.63 232.836 274.567 232.534 274.567C232.236 274.567 231.974 274.63 231.747 274.755C231.524 274.88 231.336 275.052 231.183 275.272C231.034 275.487 230.923 275.736 230.848 276.018C230.774 276.296 230.737 276.591 230.737 276.905ZM236.511 277.04V276.905C236.511 276.447 236.577 276.022 236.711 275.63C236.844 275.235 237.036 274.892 237.286 274.602C237.537 274.308 237.84 274.081 238.197 273.921C238.553 273.756 238.952 273.674 239.395 273.674C239.841 273.674 240.243 273.756 240.599 273.921C240.959 274.081 241.265 274.308 241.515 274.602C241.77 274.892 241.964 275.235 242.097 275.63C242.23 276.022 242.297 276.447 242.297 276.905V277.04C242.297 277.498 242.23 277.923 242.097 278.315C241.964 278.706 241.77 279.049 241.515 279.342C241.265 279.632 240.961 279.859 240.605 280.024C240.253 280.184 239.853 280.265 239.407 280.265C238.96 280.265 238.559 280.184 238.203 280.024C237.846 279.859 237.541 279.632 237.286 279.342C237.036 279.049 236.844 278.706 236.711 278.315C236.577 277.923 236.511 277.498 236.511 277.04ZM237.598 276.905V277.04C237.598 277.357 237.635 277.657 237.709 277.939C237.784 278.217 237.895 278.463 238.044 278.679C238.197 278.894 238.387 279.064 238.614 279.19C238.841 279.311 239.105 279.372 239.407 279.372C239.704 279.372 239.965 279.311 240.188 279.19C240.415 279.064 240.603 278.894 240.752 278.679C240.901 278.463 241.012 278.217 241.087 277.939C241.165 277.657 241.204 277.357 241.204 277.04V276.905C241.204 276.591 241.165 276.296 241.087 276.018C241.012 275.736 240.899 275.487 240.746 275.272C240.597 275.052 240.409 274.88 240.182 274.755C239.959 274.63 239.696 274.567 239.395 274.567C239.097 274.567 238.835 274.63 238.608 274.755C238.385 274.88 238.197 275.052 238.044 275.272C237.895 275.487 237.784 275.736 237.709 276.018C237.635 276.296 237.598 276.591 237.598 276.905ZM244.752 271.125V280.147H243.659V271.125H244.752ZM248.635 273.792L245.862 276.758L244.311 278.367L244.223 277.21L245.334 275.883L247.307 273.792H248.635ZM247.642 280.147L245.375 277.116L245.939 276.147L248.923 280.147H247.642ZM250.937 273.792V280.147H249.845V273.792H250.937ZM249.763 272.106C249.763 271.929 249.815 271.781 249.921 271.659C250.031 271.538 250.191 271.477 250.403 271.477C250.61 271.477 250.769 271.538 250.879 271.659C250.992 271.781 251.049 271.929 251.049 272.106C251.049 272.274 250.992 272.419 250.879 272.54C250.769 272.658 250.61 272.717 250.403 272.717C250.191 272.717 250.031 272.658 249.921 272.54C249.815 272.419 249.763 272.274 249.763 272.106ZM253.769 275.148V280.147H252.682V273.792H253.71L253.769 275.148ZM253.51 276.729L253.058 276.711C253.062 276.276 253.126 275.875 253.252 275.507C253.377 275.135 253.553 274.812 253.78 274.538C254.008 274.263 254.278 274.052 254.591 273.903C254.908 273.75 255.259 273.674 255.643 273.674C255.956 273.674 256.238 273.717 256.488 273.803C256.739 273.886 256.952 274.019 257.129 274.203C257.309 274.387 257.446 274.626 257.54 274.919C257.634 275.209 257.681 275.564 257.681 275.983V280.147H256.588V275.971C256.588 275.638 256.539 275.372 256.441 275.172C256.343 274.968 256.201 274.821 256.013 274.731C255.825 274.637 255.594 274.59 255.319 274.59C255.049 274.59 254.803 274.647 254.579 274.761C254.36 274.874 254.17 275.031 254.01 275.231C253.853 275.43 253.73 275.659 253.639 275.918C253.553 276.172 253.51 276.443 253.51 276.729ZM263.449 273.792H264.436V280.012C264.436 280.572 264.322 281.05 264.095 281.445C263.868 281.841 263.551 282.14 263.144 282.344C262.74 282.552 262.274 282.655 261.746 282.655C261.526 282.655 261.268 282.62 260.97 282.55C260.677 282.483 260.387 282.368 260.101 282.203C259.819 282.043 259.582 281.825 259.39 281.551L259.96 280.905C260.226 281.226 260.504 281.449 260.794 281.575C261.088 281.7 261.377 281.763 261.663 281.763C262.008 281.763 262.306 281.698 262.556 281.569C262.807 281.44 263.001 281.248 263.138 280.993C263.279 280.742 263.349 280.433 263.349 280.065V275.19L263.449 273.792ZM259.073 277.04V276.917C259.073 276.431 259.13 275.99 259.243 275.595C259.361 275.195 259.527 274.853 259.743 274.567C259.962 274.281 260.226 274.062 260.536 273.909C260.845 273.752 261.193 273.674 261.581 273.674C261.981 273.674 262.329 273.745 262.627 273.886C262.928 274.023 263.183 274.224 263.39 274.491C263.602 274.753 263.768 275.07 263.89 275.442C264.011 275.814 264.095 276.235 264.142 276.705V277.245C264.099 277.711 264.015 278.13 263.89 278.502C263.768 278.875 263.602 279.192 263.39 279.454C263.183 279.716 262.928 279.918 262.627 280.059C262.325 280.196 261.973 280.265 261.569 280.265C261.19 280.265 260.845 280.184 260.536 280.024C260.23 279.863 259.968 279.638 259.748 279.348C259.529 279.059 259.361 278.718 259.243 278.326C259.13 277.931 259.073 277.502 259.073 277.04ZM260.16 276.917V277.04C260.16 277.357 260.191 277.655 260.254 277.933C260.32 278.211 260.42 278.455 260.553 278.667C260.69 278.878 260.865 279.045 261.076 279.166C261.287 279.284 261.54 279.342 261.834 279.342C262.194 279.342 262.492 279.266 262.727 279.113C262.962 278.961 263.148 278.759 263.285 278.508C263.426 278.258 263.535 277.986 263.614 277.692V276.276C263.57 276.061 263.504 275.853 263.414 275.654C263.328 275.45 263.214 275.27 263.073 275.113C262.936 274.953 262.766 274.825 262.562 274.731C262.358 274.637 262.12 274.59 261.845 274.59C261.548 274.59 261.291 274.653 261.076 274.778C260.865 274.9 260.69 275.068 260.553 275.284C260.42 275.495 260.32 275.742 260.254 276.024C260.191 276.302 260.16 276.599 260.16 276.917ZM270.692 280.147H269.605V273.122C269.605 272.664 269.687 272.278 269.852 271.965C270.02 271.648 270.261 271.409 270.574 271.248C270.888 271.084 271.26 271.001 271.69 271.001C271.816 271.001 271.941 271.009 272.066 271.025C272.195 271.041 272.321 271.064 272.442 271.095L272.383 271.982C272.301 271.963 272.207 271.949 272.102 271.941C272 271.933 271.898 271.929 271.796 271.929C271.565 271.929 271.365 271.976 271.197 272.07C271.032 272.161 270.907 272.294 270.821 272.47C270.735 272.646 270.692 272.863 270.692 273.122V280.147ZM272.043 273.792V274.626H268.601V273.792H272.043ZM272.965 277.04V276.905C272.965 276.447 273.032 276.022 273.165 275.63C273.298 275.235 273.49 274.892 273.74 274.602C273.991 274.308 274.294 274.081 274.651 273.921C275.007 273.756 275.407 273.674 275.849 273.674C276.296 273.674 276.697 273.756 277.053 273.921C277.414 274.081 277.719 274.308 277.97 274.602C278.224 274.892 278.418 275.235 278.551 275.63C278.684 276.022 278.751 276.447 278.751 276.905V277.04C278.751 277.498 278.684 277.923 278.551 278.315C278.418 278.706 278.224 279.049 277.97 279.342C277.719 279.632 277.416 279.859 277.059 280.024C276.707 280.184 276.307 280.265 275.861 280.265C275.414 280.265 275.013 280.184 274.657 280.024C274.3 279.859 273.995 279.632 273.74 279.342C273.49 279.049 273.298 278.706 273.165 278.315C273.032 277.923 272.965 277.498 272.965 277.04ZM274.052 276.905V277.04C274.052 277.357 274.089 277.657 274.163 277.939C274.238 278.217 274.349 278.463 274.498 278.679C274.651 278.894 274.841 279.064 275.068 279.19C275.295 279.311 275.559 279.372 275.861 279.372C276.159 279.372 276.419 279.311 276.642 279.19C276.869 279.064 277.057 278.894 277.206 278.679C277.355 278.463 277.466 278.217 277.541 277.939C277.619 277.657 277.658 277.357 277.658 277.04V276.905C277.658 276.591 277.619 276.296 277.541 276.018C277.466 275.736 277.353 275.487 277.2 275.272C277.051 275.052 276.863 274.88 276.636 274.755C276.413 274.63 276.151 274.567 275.849 274.567C275.552 274.567 275.289 274.63 275.062 274.755C274.839 274.88 274.651 275.052 274.498 275.272C274.349 275.487 274.238 275.736 274.163 276.018C274.089 276.296 274.052 276.591 274.052 276.905ZM281.2 274.79V280.147H280.114V273.792H281.171L281.2 274.79ZM283.186 273.756L283.18 274.767C283.09 274.747 283.004 274.735 282.921 274.731C282.843 274.724 282.753 274.72 282.651 274.72C282.401 274.72 282.179 274.759 281.987 274.837C281.796 274.915 281.633 275.025 281.5 275.166C281.367 275.307 281.261 275.475 281.183 275.671C281.108 275.863 281.059 276.075 281.036 276.306L280.73 276.482C280.73 276.098 280.768 275.738 280.842 275.401C280.92 275.064 281.04 274.767 281.2 274.508C281.361 274.246 281.565 274.042 281.811 273.897C282.062 273.748 282.36 273.674 282.704 273.674C282.782 273.674 282.873 273.684 282.974 273.703C283.076 273.719 283.147 273.737 283.186 273.756Z" fill="#603813"/>
</g>
<defs>
<clipPath id="clip0_252_38">
<rect width="334" height="334" fill="white"/>
</clipPath>
</defs>
</svg>
