<svg width="120" height="120" viewBox="0 0 120 120" fill="none" xmlns="http://www.w3.org/2000/svg">
<path d="M0 44.8C0 29.1185 0 21.2778 3.05182 15.2883C5.73627 10.0197 10.0197 5.73627 15.2883 3.05182C21.2778 0 29.1185 0 44.8 0H75.2C90.8815 0 98.7222 0 104.712 3.05182C109.98 5.73627 114.264 10.0197 116.948 15.2883C120 21.2778 120 29.1185 120 44.8V75.2C120 90.8815 120 98.7222 116.948 104.712C114.264 109.98 109.98 114.264 104.712 116.948C98.7222 120 90.8815 120 75.2 120H44.8C29.1185 120 21.2778 120 15.2883 116.948C10.0197 114.264 5.73627 109.98 3.05182 104.712C0 98.7222 0 90.8815 0 75.2V44.8Z" fill="#5865F2"/>
<g clip-path="url(#clip0_813_393)">
<mask id="mask0_813_393" style="mask-type:luminance" maskUnits="userSpaceOnUse" x="24" y="33" width="71" height="55">
<path d="M95 33H24V88H95V33Z" fill="white"/>
</mask>
<g mask="url(#mask0_813_393)">
<path d="M84.1045 37.8978C79.5792 35.8214 74.7265 34.2916 69.6527 33.4154C69.5603 33.3985 69.468 33.4408 69.4204 33.5253C68.7963 34.6353 68.105 36.0834 67.6209 37.2216C62.1637 36.4046 56.7345 36.4046 51.3892 37.2216C50.905 36.0581 50.1886 34.6353 49.5617 33.5253C49.5141 33.4436 49.4218 33.4013 49.3294 33.4154C44.2584 34.2888 39.4057 35.8186 34.8776 37.8978C34.8384 37.9147 34.8048 37.9429 34.7825 37.9795C25.578 51.7309 23.0564 65.1443 24.2934 78.3914C24.299 78.4562 24.3354 78.5182 24.3858 78.5576C30.4587 83.0174 36.3413 85.7249 42.1147 87.5195C42.2071 87.5477 42.305 87.5139 42.3638 87.4378C43.7295 85.5728 44.9469 83.6063 45.9907 81.5383C46.0523 81.4172 45.9935 81.2735 45.8676 81.2256C43.9366 80.4931 42.0979 79.6 40.3292 78.5858C40.1893 78.5041 40.1781 78.304 40.3068 78.2082C40.679 77.9293 41.0513 77.6391 41.4067 77.3461C41.471 77.2926 41.5606 77.2813 41.6362 77.3151C53.2558 82.6202 65.8354 82.6202 77.3179 77.3151C77.3935 77.2785 77.4831 77.2898 77.5502 77.3433C77.9057 77.6363 78.2779 77.9293 78.6529 78.2082C78.7816 78.304 78.7732 78.5041 78.6333 78.5858C76.8646 79.6197 75.0259 80.4931 73.0921 81.2228C72.9662 81.2707 72.9102 81.4172 72.9718 81.5383C74.038 83.6034 75.2554 85.5699 76.5959 87.435C76.6519 87.5139 76.7526 87.5477 76.845 87.5195C82.6464 85.7249 88.529 83.0174 94.6019 78.5576C94.6551 78.5182 94.6887 78.459 94.6943 78.3942C96.1747 63.0791 92.2147 49.7757 84.1968 37.9823C84.1772 37.9429 84.1437 37.9147 84.1045 37.8978ZM47.7259 70.3253C44.2276 70.3253 41.3451 67.1136 41.3451 63.1693C41.3451 59.225 44.1717 56.0133 47.7259 56.0133C51.308 56.0133 54.1626 59.2532 54.1066 63.1693C54.1066 67.1136 51.28 70.3253 47.7259 70.3253ZM71.3178 70.3253C67.8196 70.3253 64.9371 67.1136 64.9371 63.1693C64.9371 59.225 67.7636 56.0133 71.3178 56.0133C74.9 56.0133 77.7545 59.2532 77.6986 63.1693C77.6986 67.1136 74.9 70.3253 71.3178 70.3253Z" fill="white"/>
</g>
</g>
<defs>
<clipPath id="clip0_813_393">
<rect width="71" height="55" fill="white" transform="translate(24 33)"/>
</clipPath>
</defs>
</svg>
