<svg width="120" height="120" viewBox="0 0 120 120" fill="none" xmlns="http://www.w3.org/2000/svg">
<path d="M0 44.8C0 29.1185 0 21.2778 3.05182 15.2883C5.73627 10.0197 10.0197 5.73627 15.2883 3.05182C21.2778 0 29.1185 0 44.8 0H75.2C90.8815 0 98.7222 0 104.712 3.05182C109.98 5.73627 114.264 10.0197 116.948 15.2883C120 21.2778 120 29.1185 120 44.8V75.2C120 90.8815 120 98.7222 116.948 104.712C114.264 109.98 109.98 114.264 104.712 116.948C98.7222 120 90.8815 120 75.2 120H44.8C29.1185 120 21.2778 120 15.2883 116.948C10.0197 114.264 5.73627 109.98 3.05182 104.712C0 98.7222 0 90.8815 0 75.2V44.8Z" fill="#24292F"/>
<g clip-path="url(#clip0_1018_77)">
<path fill-rule="evenodd" clip-rule="evenodd" d="M59.8898 25C39.4907 25 23 41.2708 23 61.4001C23 77.4904 33.5661 91.1106 48.2242 95.9312C50.0568 96.2936 50.7281 95.148 50.7281 94.1843C50.7281 93.3405 50.6677 90.4479 50.6677 87.4341C40.4059 89.6041 38.2689 83.095 38.2689 83.095C36.6198 78.8764 34.1763 77.7922 34.1763 77.7922C30.8176 75.5624 34.4209 75.5624 34.4209 75.5624C38.1466 75.8035 40.1016 79.2987 40.1016 79.2987C43.3991 84.8426 48.7127 83.2762 50.8504 82.3118C51.1555 79.9614 52.1333 78.3343 53.1716 77.4305C44.9871 76.5867 36.3759 73.4531 36.3759 59.4712C36.3759 55.4938 37.8408 52.2396 40.162 49.7087C39.7957 48.805 38.5128 45.0679 40.5289 40.0661C40.5289 40.0661 43.6437 39.1016 50.6669 43.8024C53.6738 43.0056 56.7748 42.6003 59.8898 42.5969C63.0046 42.5969 66.1798 43.0192 69.1118 43.8024C76.1358 39.1016 79.2506 40.0661 79.2506 40.0661C81.2667 45.0679 79.983 48.805 79.6168 49.7087C81.9991 52.2396 83.4036 55.4938 83.4036 59.4712C83.4036 73.4531 74.7924 76.526 66.5467 77.4305C67.8908 78.5754 69.0507 80.7446 69.0507 84.18C69.0507 89.0612 68.9902 92.9788 68.9902 94.1836C68.9902 95.148 69.6623 96.2936 71.4942 95.932C86.1522 91.1099 96.7183 77.4904 96.7183 61.4001C96.7788 41.2708 80.2277 25 59.8898 25Z" fill="white"/>
</g>
<defs>
<clipPath id="clip0_1018_77">
<rect width="74" height="71" fill="white" transform="translate(23 25)"/>
</clipPath>
</defs>
</svg>
