<svg width="120" height="120" viewBox="0 0 120 120" fill="none" xmlns="http://www.w3.org/2000/svg">
<path d="M0 44.8C0 29.1185 0 21.2778 3.05182 15.2883C5.73627 10.0197 10.0197 5.73627 15.2883 3.05182C21.2778 0 29.1185 0 44.8 0H75.2C90.8815 0 98.7222 0 104.712 3.05182C109.98 5.73627 114.264 10.0197 116.948 15.2883C120 21.2778 120 29.1185 120 44.8V75.2C120 90.8815 120 98.7222 116.948 104.712C114.264 109.98 109.98 114.264 104.712 116.948C98.7222 120 90.8815 120 75.2 120H44.8C29.1185 120 21.2778 120 15.2883 116.948C10.0197 114.264 5.73627 109.98 3.05182 104.712C0 98.7222 0 90.8815 0 75.2V44.8Z" fill="#0FD173"/>
</svg>
