<svg width="120" height="120" viewBox="0 0 120 120" fill="none" xmlns="http://www.w3.org/2000/svg">
<path d="M0 44.8C0 29.1185 0 21.2778 3.05182 15.2883C5.73627 10.0197 10.0197 5.73627 15.2883 3.05182C21.2778 0 29.1185 0 44.8 0H75.2C90.8815 0 98.7222 0 104.712 3.05182C109.98 5.73627 114.264 10.0197 116.948 15.2883C120 21.2778 120 29.1185 120 44.8V75.2C120 90.8815 120 98.7222 116.948 104.712C114.264 109.98 109.98 114.264 104.712 116.948C98.7222 120 90.8815 120 75.2 120H44.8C29.1185 120 21.2778 120 15.2883 116.948C10.0197 114.264 5.73627 109.98 3.05182 104.712C0 98.7222 0 90.8815 0 75.2V44.8Z" fill="#1DA1F2"/>
<g clip-path="url(#clip0_1018_86)">
<path d="M95.9137 40.0167C93.3739 41.1421 90.6455 41.9025 87.7772 42.2463C90.7033 40.4943 92.9481 37.7142 94.0066 34.4048C91.2691 36.0291 88.2365 37.2093 85.0093 37.8419C82.4239 35.0923 78.7435 33.3707 74.6677 33.3707C66.8445 33.3707 60.4996 39.7156 60.4996 47.5448C60.4996 48.652 60.6273 49.7288 60.8646 50.769C49.0842 50.1759 38.6482 44.5336 31.6585 35.9622C30.4418 38.0609 29.7422 40.4943 29.7422 43.0858C29.7422 48.0011 32.2455 52.3415 36.0446 54.8813C33.7207 54.8053 31.5368 54.1696 29.6267 53.108V53.2905C29.6267 60.1556 34.5085 65.883 40.9934 67.1849C39.801 67.5073 38.5509 67.6776 37.2612 67.6776C36.3487 67.6776 35.4575 67.5925 34.5937 67.4282C36.3974 73.0553 41.6291 77.1555 47.831 77.265C42.9796 81.067 36.8689 83.3331 30.2319 83.3331C29.0883 83.3331 27.9598 83.2662 26.8496 83.1354C33.1215 87.1595 40.5675 89.5016 48.5671 89.5016C74.6342 89.5016 88.8844 67.9118 88.8844 49.1873C88.8844 48.579 88.8692 47.9646 88.8418 47.3562C91.6097 45.3548 94.0126 42.8637 95.9076 40.0258L95.9137 40.0167Z" fill="white"/>
</g>
<defs>
<clipPath id="clip0_1018_86">
<rect width="73" height="73" fill="white" transform="translate(24 25)"/>
</clipPath>
</defs>
</svg>
