<svg width="120" height="120" viewBox="0 0 120 120" fill="none" xmlns="http://www.w3.org/2000/svg">
<path d="M0 44.8C0 29.1185 0 21.2778 3.05182 15.2883C5.73627 10.0197 10.0197 5.73627 15.2883 3.05182C21.2778 0 29.1185 0 44.8 0H75.2C90.8815 0 98.7222 0 104.712 3.05182C109.98 5.73627 114.264 10.0197 116.948 15.2883C120 21.2778 120 29.1185 120 44.8V75.2C120 90.8815 120 98.7222 116.948 104.712C114.264 109.98 109.98 114.264 104.712 116.948C98.7222 120 90.8815 120 75.2 120H44.8C29.1185 120 21.2778 120 15.2883 116.948C10.0197 114.264 5.73627 109.98 3.05182 104.712C0 98.7222 0 90.8815 0 75.2V44.8Z" fill="#FF0000"/>
<path d="M95.7388 42.1365C94.8823 38.9553 92.3741 36.4471 89.1929 35.5906C83.3812 34 60.1341 34 60.1341 34C60.1341 34 36.8871 34 31.0753 35.5294C27.9553 36.3859 25.3859 38.9553 24.5294 42.1365C23 47.9482 23 60 23 60C23 60 23 72.1129 24.5294 77.8635C25.3859 81.0447 27.8941 83.5529 31.0753 84.4094C36.9482 86 60.1341 86 60.1341 86C60.1341 86 83.3812 86 89.1929 84.4706C92.3741 83.6141 94.8823 81.1059 95.7388 77.9247C97.2682 72.1129 97.2682 60.0612 97.2682 60.0612C97.2682 60.0612 97.3294 47.9482 95.7388 42.1365Z" fill="white"/>
<path d="M52.7305 48.8658V71.1341L72.0622 60L52.7305 48.8658Z" fill="#FF0000"/>
</svg>
